<mxfile host="app.diagrams.net" modified="2024-05-08T18:19:20.240Z" agent="Mozilla/5.0 (X11; Ubuntu; Linux x86_64; rv:125.0) Gecko/20100101 Firefox/125.0" etag="_F_sx1wR_YLN5KaFUqGq" scale="4" border="0" version="24.3.1" type="device">
  <diagram id="KdCrRrIsqHHysakkYIEn" name="Page-1">
    <mxGraphModel dx="988" dy="549" grid="1" gridSize="10" guides="1" tooltips="1" connect="1" arrows="1" fold="1" page="1" pageScale="1" pageWidth="827" pageHeight="1169" math="0" shadow="0">
      <root>
        <mxCell id="0" />
        <mxCell id="1" parent="0" />
        <mxCell id="ht_Mzunb_tVLJNK0aL3s-14" value="STATE_IDLE" style="swimlane;fontStyle=0;childLayout=stackLayout;horizontal=1;startSize=26;horizontalStack=0;resizeParent=1;resizeParentMax=0;resizeLast=0;collapsible=1;marginBottom=0;align=center;fontSize=13;" parent="1" vertex="1">
          <mxGeometry x="790" y="295" width="120" height="70" as="geometry" />
        </mxCell>
        <mxCell id="ht_Mzunb_tVLJNK0aL3s-15" value="/* Initial state */" style="text;strokeColor=none;fillColor=none;spacingLeft=4;spacingRight=4;overflow=hidden;rotatable=0;points=[[0,0.5],[1,0.5]];portConstraint=eastwest;fontSize=13;" parent="ht_Mzunb_tVLJNK0aL3s-14" vertex="1">
          <mxGeometry y="26" width="120" height="44" as="geometry" />
        </mxCell>
        <mxCell id="ht_Mzunb_tVLJNK0aL3s-25" value="" style="endArrow=classic;html=1;rounded=0;strokeColor=default;jumpStyle=none;fontSize=13;exitX=0.49;exitY=-0.028;exitDx=0;exitDy=0;exitPerimeter=0;" parent="1" source="ht_Mzunb_tVLJNK0aL3s-35" edge="1">
          <mxGeometry width="50" height="50" relative="1" as="geometry">
            <mxPoint x="1280" y="278" as="sourcePoint" />
            <mxPoint x="860" y="290" as="targetPoint" />
            <Array as="points">
              <mxPoint x="1174" y="270" />
              <mxPoint x="860" y="270" />
            </Array>
          </mxGeometry>
        </mxCell>
        <mxCell id="ht_Mzunb_tVLJNK0aL3s-26" value="&lt;font style=&quot;font-size: 13px;&quot;&gt;RANGE_TIMEOUT expires&lt;/font&gt;" style="edgeLabel;html=1;align=center;verticalAlign=middle;resizable=0;points=[];fontSize=13;" parent="1" vertex="1" connectable="0">
          <mxGeometry x="1030.0007680252165" y="270.0046601956258" as="geometry">
            <mxPoint x="6" y="1" as="offset" />
          </mxGeometry>
        </mxCell>
        <mxCell id="ht_Mzunb_tVLJNK0aL3s-35" value="STATE_RANGE" style="swimlane;fontStyle=0;childLayout=stackLayout;horizontal=1;startSize=26;horizontalStack=0;resizeParent=1;resizeParentMax=0;resizeLast=0;collapsible=1;marginBottom=0;align=center;fontSize=13;" parent="1" vertex="1">
          <mxGeometry x="1120" y="305" width="110" height="60" as="geometry" />
        </mxCell>
        <mxCell id="ht_Mzunb_tVLJNK0aL3s-36" value="/**/" style="text;strokeColor=none;fillColor=none;spacingLeft=4;spacingRight=4;overflow=hidden;rotatable=0;points=[[0,0.5],[1,0.5]];portConstraint=eastwest;fontSize=13;" parent="ht_Mzunb_tVLJNK0aL3s-35" vertex="1">
          <mxGeometry y="26" width="110" height="34" as="geometry" />
        </mxCell>
        <mxCell id="ht_Mzunb_tVLJNK0aL3s-43" value="" style="endArrow=classic;html=1;rounded=0;strokeColor=default;jumpStyle=none;exitX=1;exitY=0.5;exitDx=0;exitDy=0;fontSize=13;entryX=-0.002;entryY=0.296;entryDx=0;entryDy=0;entryPerimeter=0;" parent="1" source="ht_Mzunb_tVLJNK0aL3s-15" target="ht_Mzunb_tVLJNK0aL3s-36" edge="1">
          <mxGeometry width="50" height="50" relative="1" as="geometry">
            <mxPoint x="280" y="740" as="sourcePoint" />
            <mxPoint x="1170" y="343" as="targetPoint" />
            <Array as="points" />
          </mxGeometry>
        </mxCell>
        <mxCell id="ht_Mzunb_tVLJNK0aL3s-44" value="&lt;font style=&quot;font-size: 13px;&quot;&gt;received POLL message&lt;br style=&quot;font-size: 13px;&quot;&gt;( transmitPollAck() )&lt;br style=&quot;font-size: 13px;&quot;&gt;&lt;/font&gt;" style="edgeLabel;html=1;align=center;verticalAlign=middle;resizable=0;points=[];fontSize=13;" parent="ht_Mzunb_tVLJNK0aL3s-43" vertex="1" connectable="0">
          <mxGeometry x="-0.0227" relative="1" as="geometry">
            <mxPoint x="-3" as="offset" />
          </mxGeometry>
        </mxCell>
        <mxCell id="ht_Mzunb_tVLJNK0aL3s-61" value="" style="endArrow=classic;html=1;rounded=0;strokeColor=default;jumpStyle=none;fontSize=13;entryX=0.532;entryY=1.047;entryDx=0;entryDy=0;entryPerimeter=0;" parent="1" target="ht_Mzunb_tVLJNK0aL3s-15" edge="1">
          <mxGeometry width="50" height="50" relative="1" as="geometry">
            <mxPoint x="1170" y="367" as="sourcePoint" />
            <mxPoint x="810" y="381" as="targetPoint" />
            <Array as="points">
              <mxPoint x="1170" y="400" />
              <mxPoint x="854" y="400" />
            </Array>
          </mxGeometry>
        </mxCell>
        <mxCell id="ht_Mzunb_tVLJNK0aL3s-62" value="&lt;font style=&quot;font-size: 13px;&quot;&gt;record range received time&lt;br style=&quot;font-size: 13px;&quot;&gt;&lt;font style=&quot;font-size: 13px;&quot;&gt;( transmitRangeReport()&lt;/font&gt; )&lt;br style=&quot;font-size: 13px;&quot;&gt;&lt;/font&gt;" style="edgeLabel;html=1;align=center;verticalAlign=middle;resizable=0;points=[];fontSize=13;" parent="ht_Mzunb_tVLJNK0aL3s-61" vertex="1" connectable="0">
          <mxGeometry x="0.0493" y="1" relative="1" as="geometry">
            <mxPoint as="offset" />
          </mxGeometry>
        </mxCell>
        <mxCell id="Ta5nCSjJ5rsA6mGrivYZ-1" value="STATE_RANGING_INIT" style="swimlane;fontStyle=0;childLayout=stackLayout;horizontal=1;startSize=26;horizontalStack=0;resizeParent=1;resizeParentMax=0;resizeLast=0;collapsible=1;marginBottom=0;align=center;fontSize=13;" parent="1" vertex="1">
          <mxGeometry x="330" y="295" width="290" height="70" as="geometry" />
        </mxCell>
        <mxCell id="Ta5nCSjJ5rsA6mGrivYZ-2" value="/* delay forÂ &#xa;* random(0, RANGING_INIT_TIMEOUT - 10) */" style="text;strokeColor=none;fillColor=none;spacingLeft=4;spacingRight=4;overflow=hidden;rotatable=0;points=[[0,0.5],[1,0.5]];portConstraint=eastwest;fontSize=13;" parent="Ta5nCSjJ5rsA6mGrivYZ-1" vertex="1">
          <mxGeometry y="26" width="290" height="44" as="geometry" />
        </mxCell>
        <mxCell id="Ta5nCSjJ5rsA6mGrivYZ-3" value="" style="endArrow=classic;html=1;rounded=0;strokeColor=default;jumpStyle=none;fontSize=13;entryX=0;entryY=0.841;entryDx=0;entryDy=0;entryPerimeter=0;" parent="1" target="ht_Mzunb_tVLJNK0aL3s-15" edge="1">
          <mxGeometry width="50" height="50" relative="1" as="geometry">
            <mxPoint x="620" y="358" as="sourcePoint" />
            <mxPoint x="780" y="358" as="targetPoint" />
          </mxGeometry>
        </mxCell>
        <mxCell id="Ta5nCSjJ5rsA6mGrivYZ-4" value="&lt;font style=&quot;font-size: 13px;&quot;&gt;( transmitRangingInit() )&lt;br style=&quot;font-size: 13px;&quot;&gt;&lt;/font&gt;" style="edgeLabel;html=1;align=center;verticalAlign=middle;resizable=0;points=[];fontSize=13;" parent="Ta5nCSjJ5rsA6mGrivYZ-3" vertex="1" connectable="0">
          <mxGeometry x="-0.0572" y="1" relative="1" as="geometry">
            <mxPoint x="5" as="offset" />
          </mxGeometry>
        </mxCell>
        <mxCell id="ht_Mzunb_tVLJNK0aL3s-20" value="" style="endArrow=classic;html=1;rounded=0;strokeColor=default;jumpStyle=none;entryX=1.01;entryY=0.575;entryDx=0;entryDy=0;entryPerimeter=0;fontSize=13;exitX=0;exitY=0.351;exitDx=0;exitDy=0;exitPerimeter=0;" parent="1" edge="1">
          <mxGeometry width="50" height="50" relative="1" as="geometry">
            <mxPoint x="790.0000000000002" y="332.56999999999994" as="sourcePoint" />
            <mxPoint x="622.5" y="332.54999999999995" as="targetPoint" />
          </mxGeometry>
        </mxCell>
        <mxCell id="ht_Mzunb_tVLJNK0aL3s-21" value="&lt;font style=&quot;font-size: 13px;&quot;&gt;received Blink message&lt;br style=&quot;font-size: 13px;&quot;&gt;&lt;/font&gt;" style="edgeLabel;html=1;align=center;verticalAlign=middle;resizable=0;points=[];fontSize=13;" parent="ht_Mzunb_tVLJNK0aL3s-20" vertex="1" connectable="0">
          <mxGeometry x="-0.0572" y="1" relative="1" as="geometry">
            <mxPoint x="-1" y="-11" as="offset" />
          </mxGeometry>
        </mxCell>
        <mxCell id="MeS8G_RgegmF3le94Eh8-2" value="Anchor &lt;font style=&quot;font-size: 16px;&quot;&gt;Init&lt;/font&gt;" style="text;html=1;align=center;verticalAlign=middle;whiteSpace=wrap;rounded=0;fontSize=16;" parent="1" vertex="1">
          <mxGeometry x="790" y="210" width="80" height="30" as="geometry" />
        </mxCell>
        <mxCell id="7w15tl7N0OwoSpSBgD6o-1" value="Ranging phase" style="text;html=1;align=center;verticalAlign=middle;whiteSpace=wrap;rounded=0;fontColor=#9A9996;fontSize=17;" parent="1" vertex="1">
          <mxGeometry x="870" y="240" width="130" height="30" as="geometry" />
        </mxCell>
        <mxCell id="7w15tl7N0OwoSpSBgD6o-2" value="Discovery phase" style="text;html=1;align=center;verticalAlign=middle;whiteSpace=wrap;rounded=0;fontColor=#9A9996;fontSize=17;" parent="1" vertex="1">
          <mxGeometry x="360" y="255" width="130" height="30" as="geometry" />
        </mxCell>
        <mxCell id="7w15tl7N0OwoSpSBgD6o-3" value="" style="endArrow=none;dashed=1;html=1;strokeWidth=2;rounded=0;dashPattern=1 2;strokeColor=#9a9996;" parent="1" edge="1">
          <mxGeometry width="50" height="50" relative="1" as="geometry">
            <mxPoint x="870" y="240" as="sourcePoint" />
            <mxPoint x="1260" y="240" as="targetPoint" />
          </mxGeometry>
        </mxCell>
        <mxCell id="7w15tl7N0OwoSpSBgD6o-4" value="" style="endArrow=none;dashed=1;html=1;strokeWidth=2;rounded=0;dashPattern=1 2;strokeColor=#9a9996;" parent="1" edge="1">
          <mxGeometry width="50" height="50" relative="1" as="geometry">
            <mxPoint x="870" y="420" as="sourcePoint" />
            <mxPoint x="1260" y="420" as="targetPoint" />
          </mxGeometry>
        </mxCell>
        <mxCell id="7w15tl7N0OwoSpSBgD6o-5" value="" style="endArrow=none;dashed=1;html=1;strokeWidth=2;rounded=0;dashPattern=1 2;strokeColor=#9a9996;" parent="1" edge="1">
          <mxGeometry width="50" height="50" relative="1" as="geometry">
            <mxPoint x="1260" y="420" as="sourcePoint" />
            <mxPoint x="1260" y="240" as="targetPoint" />
          </mxGeometry>
        </mxCell>
        <mxCell id="7w15tl7N0OwoSpSBgD6o-7" value="" style="endArrow=none;dashed=1;html=1;strokeWidth=2;rounded=0;dashPattern=1 2;strokeColor=#9a9996;" parent="1" edge="1">
          <mxGeometry width="50" height="50" relative="1" as="geometry">
            <mxPoint x="800" y="400" as="sourcePoint" />
            <mxPoint x="800" y="250" as="targetPoint" />
          </mxGeometry>
        </mxCell>
        <mxCell id="7w15tl7N0OwoSpSBgD6o-8" value="" style="endArrow=none;dashed=1;html=1;strokeWidth=2;rounded=0;dashPattern=1 2;strokeColor=#9a9996;" parent="1" edge="1">
          <mxGeometry width="50" height="50" relative="1" as="geometry">
            <mxPoint x="320" y="400" as="sourcePoint" />
            <mxPoint x="800" y="400" as="targetPoint" />
          </mxGeometry>
        </mxCell>
        <mxCell id="7w15tl7N0OwoSpSBgD6o-9" value="" style="endArrow=none;dashed=1;html=1;strokeWidth=2;rounded=0;dashPattern=1 2;strokeColor=#9a9996;" parent="1" edge="1">
          <mxGeometry width="50" height="50" relative="1" as="geometry">
            <mxPoint x="320" y="250" as="sourcePoint" />
            <mxPoint x="800" y="250" as="targetPoint" />
          </mxGeometry>
        </mxCell>
        <mxCell id="7w15tl7N0OwoSpSBgD6o-10" value="" style="endArrow=none;dashed=1;html=1;strokeWidth=2;rounded=0;dashPattern=1 2;strokeColor=#9a9996;" parent="1" edge="1">
          <mxGeometry width="50" height="50" relative="1" as="geometry">
            <mxPoint x="320" y="400" as="sourcePoint" />
            <mxPoint x="320" y="250" as="targetPoint" />
          </mxGeometry>
        </mxCell>
        <mxCell id="7w15tl7N0OwoSpSBgD6o-6" value="" style="endArrow=none;dashed=1;html=1;strokeWidth=2;rounded=0;dashPattern=1 2;strokeColor=#9a9996;" parent="1" edge="1">
          <mxGeometry width="50" height="50" relative="1" as="geometry">
            <mxPoint x="870" y="420" as="sourcePoint" />
            <mxPoint x="870" y="240" as="targetPoint" />
          </mxGeometry>
        </mxCell>
        <mxCell id="7w15tl7N0OwoSpSBgD6o-13" value="" style="endArrow=classic;html=1;rounded=0;exitX=0.5;exitY=1;exitDx=0;exitDy=0;entryX=0.337;entryY=-0.003;entryDx=0;entryDy=0;entryPerimeter=0;" parent="1" source="MeS8G_RgegmF3le94Eh8-2" target="ht_Mzunb_tVLJNK0aL3s-14" edge="1">
          <mxGeometry width="50" height="50" relative="1" as="geometry">
            <mxPoint x="790" y="330" as="sourcePoint" />
            <mxPoint x="840" y="280" as="targetPoint" />
          </mxGeometry>
        </mxCell>
      </root>
    </mxGraphModel>
  </diagram>
</mxfile>
